<mxfile host="app.diagrams.net" modified="2020-09-26T04:15:56.771Z" agent="5.0 (Macintosh; Intel Mac OS X 10_15_5) AppleWebKit/537.36 (KHTML, like Gecko) Chrome/85.0.4183.121 Safari/537.36" etag="_bBTTMs8qqyTfo9z85fd" version="13.6.9" type="github">
  <diagram id="WJ-QbzFVEt68B8P418sN" name="Page-1">
    <mxGraphModel dx="946" dy="646" grid="1" gridSize="10" guides="1" tooltips="1" connect="1" arrows="1" fold="1" page="1" pageScale="1" pageWidth="827" pageHeight="1169" math="0" shadow="0">
      <root>
        <mxCell id="0" />
        <mxCell id="1" parent="0" />
        <mxCell id="4s96KvskyLVbEcosYAas-3" value="" style="edgeStyle=orthogonalEdgeStyle;rounded=0;orthogonalLoop=1;jettySize=auto;html=1;" edge="1" parent="1" source="4s96KvskyLVbEcosYAas-1" target="4s96KvskyLVbEcosYAas-2">
          <mxGeometry relative="1" as="geometry" />
        </mxCell>
        <mxCell id="4s96KvskyLVbEcosYAas-1" value="shift=2" style="rounded=0;whiteSpace=wrap;html=1;" vertex="1" parent="1">
          <mxGeometry x="114" y="120" width="120" height="40" as="geometry" />
        </mxCell>
        <mxCell id="4s96KvskyLVbEcosYAas-5" value="" style="edgeStyle=orthogonalEdgeStyle;rounded=0;orthogonalLoop=1;jettySize=auto;html=1;" edge="1" parent="1" source="4s96KvskyLVbEcosYAas-2">
          <mxGeometry relative="1" as="geometry">
            <mxPoint x="174" y="300" as="targetPoint" />
          </mxGeometry>
        </mxCell>
        <mxCell id="4s96KvskyLVbEcosYAas-2" value="encr_msg=[&quot;&quot;,&quot;&quot;,&quot;&quot;]" style="whiteSpace=wrap;html=1;rounded=0;" vertex="1" parent="1">
          <mxGeometry x="114" y="210" width="120" height="40" as="geometry" />
        </mxCell>
        <mxCell id="4s96KvskyLVbEcosYAas-10" value="" style="edgeStyle=orthogonalEdgeStyle;rounded=0;orthogonalLoop=1;jettySize=auto;html=1;" edge="1" parent="1" source="4s96KvskyLVbEcosYAas-7" target="4s96KvskyLVbEcosYAas-9">
          <mxGeometry relative="1" as="geometry" />
        </mxCell>
        <mxCell id="4s96KvskyLVbEcosYAas-7" value="all_lines=open(&quot;store data.txt&quot;,&quot;r&quot;).readlines()" style="whiteSpace=wrap;html=1;rounded=0;" vertex="1" parent="1">
          <mxGeometry x="106" y="300" width="136" height="45" as="geometry" />
        </mxCell>
        <mxCell id="4s96KvskyLVbEcosYAas-14" value="" style="edgeStyle=orthogonalEdgeStyle;rounded=0;orthogonalLoop=1;jettySize=auto;html=1;" edge="1" parent="1" source="4s96KvskyLVbEcosYAas-9" target="4s96KvskyLVbEcosYAas-13">
          <mxGeometry relative="1" as="geometry" />
        </mxCell>
        <mxCell id="4s96KvskyLVbEcosYAas-9" value="encr_lines=open(&quot;encrypted store data.txt&quot;,&quot;w&quot;)" style="whiteSpace=wrap;html=1;rounded=0;" vertex="1" parent="1">
          <mxGeometry x="91" y="400" width="166" height="40" as="geometry" />
        </mxCell>
        <mxCell id="4s96KvskyLVbEcosYAas-12" value="" style="edgeStyle=orthogonalEdgeStyle;rounded=0;orthogonalLoop=1;jettySize=auto;html=1;" edge="1" parent="1" target="4s96KvskyLVbEcosYAas-1">
          <mxGeometry relative="1" as="geometry">
            <mxPoint x="200" y="60" as="sourcePoint" />
            <Array as="points">
              <mxPoint x="174" y="60" />
            </Array>
          </mxGeometry>
        </mxCell>
        <mxCell id="4s96KvskyLVbEcosYAas-11" value="&lt;b&gt;&lt;font style=&quot;font-size: 18px&quot;&gt;Start&lt;/font&gt;&lt;/b&gt;" style="rounded=1;whiteSpace=wrap;html=1;" vertex="1" parent="1">
          <mxGeometry x="114" y="20" width="120" height="60" as="geometry" />
        </mxCell>
        <mxCell id="4s96KvskyLVbEcosYAas-16" value="" style="edgeStyle=orthogonalEdgeStyle;rounded=0;orthogonalLoop=1;jettySize=auto;html=1;" edge="1" parent="1" source="4s96KvskyLVbEcosYAas-13" target="4s96KvskyLVbEcosYAas-15">
          <mxGeometry relative="1" as="geometry" />
        </mxCell>
        <mxCell id="4s96KvskyLVbEcosYAas-20" value="" style="edgeStyle=orthogonalEdgeStyle;rounded=0;orthogonalLoop=1;jettySize=auto;html=1;" edge="1" parent="1" source="4s96KvskyLVbEcosYAas-13" target="4s96KvskyLVbEcosYAas-19">
          <mxGeometry relative="1" as="geometry">
            <Array as="points">
              <mxPoint x="290" y="515" />
              <mxPoint x="290" y="680" />
              <mxPoint x="220" y="680" />
            </Array>
          </mxGeometry>
        </mxCell>
        <mxCell id="4s96KvskyLVbEcosYAas-13" value="i in range(3)" style="shape=hexagon;perimeter=hexagonPerimeter2;whiteSpace=wrap;html=1;fixedSize=1;rounded=0;" vertex="1" parent="1">
          <mxGeometry x="114" y="500" width="120" height="30" as="geometry" />
        </mxCell>
        <mxCell id="4s96KvskyLVbEcosYAas-17" style="edgeStyle=orthogonalEdgeStyle;rounded=0;orthogonalLoop=1;jettySize=auto;html=1;entryX=0;entryY=0.5;entryDx=0;entryDy=0;" edge="1" parent="1" source="4s96KvskyLVbEcosYAas-15" target="4s96KvskyLVbEcosYAas-13">
          <mxGeometry relative="1" as="geometry">
            <mxPoint x="10" y="520" as="targetPoint" />
            <Array as="points">
              <mxPoint x="50" y="610" />
              <mxPoint x="50" y="515" />
            </Array>
          </mxGeometry>
        </mxCell>
        <mxCell id="4s96KvskyLVbEcosYAas-15" value="all_lines[i]=all_lines[i].strip" style="whiteSpace=wrap;html=1;rounded=0;" vertex="1" parent="1">
          <mxGeometry x="96" y="595" width="156" height="35" as="geometry" />
        </mxCell>
        <mxCell id="4s96KvskyLVbEcosYAas-22" value="" style="edgeStyle=orthogonalEdgeStyle;rounded=0;orthogonalLoop=1;jettySize=auto;html=1;" edge="1" parent="1" source="4s96KvskyLVbEcosYAas-19" target="4s96KvskyLVbEcosYAas-21">
          <mxGeometry relative="1" as="geometry" />
        </mxCell>
        <mxCell id="4s96KvskyLVbEcosYAas-29" value="" style="edgeStyle=orthogonalEdgeStyle;rounded=0;orthogonalLoop=1;jettySize=auto;html=1;" edge="1" parent="1" source="4s96KvskyLVbEcosYAas-19" target="4s96KvskyLVbEcosYAas-28">
          <mxGeometry relative="1" as="geometry" />
        </mxCell>
        <mxCell id="4s96KvskyLVbEcosYAas-19" value="n,line in enumerate(all_lines)" style="shape=hexagon;perimeter=hexagonPerimeter2;whiteSpace=wrap;html=1;fixedSize=1;rounded=0;" vertex="1" parent="1">
          <mxGeometry x="125.99" y="750" width="187.83" height="30" as="geometry" />
        </mxCell>
        <mxCell id="4s96KvskyLVbEcosYAas-24" value="" style="edgeStyle=orthogonalEdgeStyle;rounded=0;orthogonalLoop=1;jettySize=auto;html=1;" edge="1" parent="1" source="4s96KvskyLVbEcosYAas-21" target="4s96KvskyLVbEcosYAas-23">
          <mxGeometry relative="1" as="geometry" />
        </mxCell>
        <mxCell id="4s96KvskyLVbEcosYAas-26" style="edgeStyle=orthogonalEdgeStyle;rounded=0;orthogonalLoop=1;jettySize=auto;html=1;entryX=0;entryY=0.5;entryDx=0;entryDy=0;" edge="1" parent="1" source="4s96KvskyLVbEcosYAas-21" target="4s96KvskyLVbEcosYAas-19">
          <mxGeometry relative="1" as="geometry">
            <Array as="points">
              <mxPoint x="336" y="839" />
              <mxPoint x="336" y="955" />
              <mxPoint x="60" y="955" />
              <mxPoint x="60" y="765" />
            </Array>
          </mxGeometry>
        </mxCell>
        <mxCell id="4s96KvskyLVbEcosYAas-21" value="elem in line" style="shape=hexagon;perimeter=hexagonPerimeter2;whiteSpace=wrap;html=1;fixedSize=1;rounded=0;" vertex="1" parent="1">
          <mxGeometry x="159.90999999999997" y="827" width="120" height="25" as="geometry" />
        </mxCell>
        <mxCell id="4s96KvskyLVbEcosYAas-25" style="edgeStyle=orthogonalEdgeStyle;rounded=0;orthogonalLoop=1;jettySize=auto;html=1;entryX=0;entryY=0.5;entryDx=0;entryDy=0;" edge="1" parent="1" source="4s96KvskyLVbEcosYAas-23" target="4s96KvskyLVbEcosYAas-21">
          <mxGeometry relative="1" as="geometry">
            <Array as="points">
              <mxPoint x="86" y="909" />
              <mxPoint x="86" y="840" />
            </Array>
          </mxGeometry>
        </mxCell>
        <mxCell id="4s96KvskyLVbEcosYAas-23" value="encr_msg[n]+=chr(ord(elem)+shift)" style="whiteSpace=wrap;html=1;rounded=0;" vertex="1" parent="1">
          <mxGeometry x="117.96000000000004" y="895" width="203.91" height="27.5" as="geometry" />
        </mxCell>
        <mxCell id="4s96KvskyLVbEcosYAas-32" value="" style="edgeStyle=orthogonalEdgeStyle;rounded=0;orthogonalLoop=1;jettySize=auto;html=1;" edge="1" parent="1" source="4s96KvskyLVbEcosYAas-28" target="4s96KvskyLVbEcosYAas-31">
          <mxGeometry relative="1" as="geometry" />
        </mxCell>
        <mxCell id="4s96KvskyLVbEcosYAas-37" value="" style="edgeStyle=orthogonalEdgeStyle;rounded=0;orthogonalLoop=1;jettySize=auto;html=1;" edge="1" parent="1" source="4s96KvskyLVbEcosYAas-28" target="4s96KvskyLVbEcosYAas-36">
          <mxGeometry relative="1" as="geometry" />
        </mxCell>
        <mxCell id="4s96KvskyLVbEcosYAas-28" value="elem in encr_msg" style="shape=hexagon;perimeter=hexagonPerimeter2;whiteSpace=wrap;html=1;fixedSize=1;rounded=0;" vertex="1" parent="1">
          <mxGeometry x="420" y="805" width="120" height="22" as="geometry" />
        </mxCell>
        <mxCell id="4s96KvskyLVbEcosYAas-33" style="edgeStyle=orthogonalEdgeStyle;rounded=0;orthogonalLoop=1;jettySize=auto;html=1;entryX=0;entryY=0.5;entryDx=0;entryDy=0;" edge="1" parent="1" source="4s96KvskyLVbEcosYAas-31" target="4s96KvskyLVbEcosYAas-28">
          <mxGeometry relative="1" as="geometry">
            <Array as="points">
              <mxPoint x="480" y="881" />
              <mxPoint x="380" y="881" />
              <mxPoint x="380" y="816" />
            </Array>
          </mxGeometry>
        </mxCell>
        <mxCell id="4s96KvskyLVbEcosYAas-31" value="encr_lines.write(elem+&quot;\n&quot;)" style="whiteSpace=wrap;html=1;rounded=0;" vertex="1" parent="1">
          <mxGeometry x="400" y="868" width="160" height="27" as="geometry" />
        </mxCell>
        <mxCell id="4s96KvskyLVbEcosYAas-38" style="edgeStyle=orthogonalEdgeStyle;rounded=0;orthogonalLoop=1;jettySize=auto;html=1;" edge="1" parent="1" source="4s96KvskyLVbEcosYAas-36" target="4s96KvskyLVbEcosYAas-39">
          <mxGeometry relative="1" as="geometry">
            <mxPoint x="660" y="875" as="targetPoint" />
          </mxGeometry>
        </mxCell>
        <mxCell id="4s96KvskyLVbEcosYAas-36" value="encr_lines.close()" style="whiteSpace=wrap;html=1;rounded=0;" vertex="1" parent="1">
          <mxGeometry x="610" y="805" width="100" height="22" as="geometry" />
        </mxCell>
        <mxCell id="4s96KvskyLVbEcosYAas-39" value="&lt;b&gt;&lt;font style=&quot;font-size: 18px&quot;&gt;End&lt;/font&gt;&lt;/b&gt;" style="rounded=1;whiteSpace=wrap;html=1;" vertex="1" parent="1">
          <mxGeometry x="600" y="945" width="120" height="60" as="geometry" />
        </mxCell>
      </root>
    </mxGraphModel>
  </diagram>
</mxfile>
